<?xml version="1.0" encoding="utf-8"?>
<!-- Generator: Adobe Illustrator 18.1.1, SVG Export Plug-In . SVG Version: 6.00 Build 0)  -->
<svg version="1.1" id="Layer_1" xmlns="http://www.w3.org/2000/svg" xmlns:xlink="http://www.w3.org/1999/xlink" x="0px" y="0px"
	 viewBox="6.2 327.9 601.6 121" enable-background="new 6.2 327.9 601.6 121" xml:space="preserve">
<g>
	<path fill="#FFFFFF" d="M95.1,443.3c-5.7,2.6-16.6,5.7-31.2,5.7c-33.2,0-57.7-20.8-57.7-59.2c0-36.9,24.9-61.8,61.3-61.8
		c14.5,0,23.9,3.1,28.1,5.2L92,345.6c-5.7-2.6-14-4.7-23.9-4.7c-27.5,0-45.7,17.7-45.7,48.3c0,28.6,16.6,47.3,45.2,47.3
		c9.4,0,18.7-2.1,24.9-4.7L95.1,443.3z"/>
	<path fill="#FFFFFF" d="M187.5,404.3c0,31.2-21.3,44.7-42.1,44.7c-22.9,0-40.5-16.6-40.5-43.1c0-28.1,18.2-44.7,41.6-44.7
		C171.4,361.2,187.5,378.3,187.5,404.3z M121,404.8c0,18.2,10.4,32.2,25.5,32.2c14.5,0,25.5-13.5,25.5-32.7c0-14-7.3-32.2-25.5-32.2
		C128.8,372.6,121,389.2,121,404.8z"/>
	<path fill="#FFFFFF" d="M207.3,385.6c0-8.8,0-15.6-0.5-22.9h13.5l1,14h0.5c4.2-7.8,14-15.6,28.1-15.6c11.4,0,29.6,6.8,29.6,35.8
		v49.9h-15.1v-48.3c0-13.5-5.2-24.9-19.2-24.9c-9.9,0-17.7,7.3-20.3,15.6c-0.5,2.1-1,4.7-1,7.3v50.4h-15.1v-61.3H207.3z"/>
	<path fill="#FFFFFF" d="M303.4,385.6c0-8.8,0-15.6-0.5-22.9h13.5l1,14h0.5c4.2-7.8,14-15.6,28.1-15.6c11.4,0,29.6,6.8,29.6,35.8
		v49.9h-15.1v-48.3c0-13.5-5.2-24.9-19.2-24.9c-9.9,0-17.7,7.3-20.3,15.6c-0.5,2.1-1,4.7-1,7.3v50.4H305v-61.3H303.4z"/>
	<path fill="#FFFFFF" d="M408.9,407.9c0.5,20.8,13.5,29.1,29.1,29.1c10.9,0,17.7-2.1,23.4-4.2l2.6,10.9c-5.2,2.6-14.5,5.2-28.1,5.2
		c-26,0-41.6-17.1-41.6-42.6c0-25.5,15.1-45.2,39.5-45.2c27.5,0,34.8,24.4,34.8,39.5c0,3.1-0.5,5.7-0.5,7.3H408.9z M453.5,396.5
		c0-9.9-4.2-24.9-21.3-24.9c-15.6,0-22.3,14-23.4,24.9H453.5z"/>
	<path fill="#FFFFFF" d="M547.1,443.8c-4.2,2.1-13,4.7-24.4,4.7c-25.5,0-42.1-17.1-42.1-43.1s17.7-44.7,45.2-44.7
		c8.8,0,17.1,2.1,21.3,4.2l-3.6,11.9c-3.6-2.1-9.4-4.2-17.7-4.2c-19.2,0-29.6,14-29.6,31.7c0,19.2,12.5,31.7,29.1,31.7
		c8.8,0,14.5-2.1,18.7-4.2L547.1,443.8z"/>
	<path fill="#FFFFFF" d="M586,338.9v24.4h21.8v11.4H586v45.2c0,10.4,3.1,16.1,11.4,16.1c4.2,0,6.8-0.5,8.8-1l0.5,11.4
		c-3.1,1-7.8,2.1-13.5,2.1c-7.3,0-13-2.1-16.6-6.2c-4.2-4.7-5.7-11.9-5.7-21.8v-45.7h-13v-11.4h13v-20.8L586,338.9z"/>
</g>
</svg>
