<?xml version="1.0" encoding="utf-8"?>
<!-- Generator: Adobe Illustrator 18.1.1, SVG Export Plug-In . SVG Version: 6.00 Build 0)  -->
<svg version="1.1" id="Layer_1" xmlns="http://www.w3.org/2000/svg" xmlns:xlink="http://www.w3.org/1999/xlink" x="0px" y="0px"
	 viewBox="0 0 117.8 36.4" enable-background="new 0 0 117.8 36.4" xml:space="preserve">
<g>
	<path fill="#666766" d="M18.3,27.3c-1.1,0.5-3.2,1.1-6,1.1c-6.4,0-11.1-4-11.1-11.4C1.2,9.9,6,5.1,13,5.1c2.8,0,4.6,0.6,5.4,1
		l-0.7,2.4c-1.1-0.5-2.7-0.9-4.6-0.9c-5.3,0-8.8,3.4-8.8,9.3c0,5.5,3.2,9.1,8.7,9.1c1.8,0,3.6-0.4,4.8-0.9L18.3,27.3z"/>
	<path fill="#666766" d="M36.1,19.8c0,6-4.1,8.6-8.1,8.6c-4.4,0-7.8-3.2-7.8-8.3c0-5.4,3.5-8.6,8-8.6C33,11.5,36.1,14.8,36.1,19.8z
		 M23.3,19.9c0,3.5,2,6.2,4.9,6.2c2.8,0,4.9-2.6,4.9-6.3c0-2.7-1.4-6.2-4.9-6.2C24.8,13.7,23.3,16.9,23.3,19.9z"/>
	<path fill="#666766" d="M39.9,16.2c0-1.7,0-3-0.1-4.4h2.6l0.2,2.7h0.1c0.8-1.5,2.7-3,5.4-3c2.2,0,5.7,1.3,5.7,6.9V28h-2.9v-9.3
		c0-2.6-1-4.8-3.7-4.8c-1.9,0-3.4,1.4-3.9,3c-0.1,0.4-0.2,0.9-0.2,1.4V28h-2.9V16.2z"/>
	<path fill="#666766" d="M58.4,16.2c0-1.7,0-3-0.1-4.4h2.6l0.2,2.7h0.1c0.8-1.5,2.7-3,5.4-3c2.2,0,5.7,1.3,5.7,6.9V28h-2.9v-9.3
		c0-2.6-1-4.8-3.7-4.8c-1.9,0-3.4,1.4-3.9,3c-0.1,0.4-0.2,0.9-0.2,1.4V28h-2.9V16.2z"/>
	<path fill="#666766" d="M78.7,20.5c0.1,4,2.6,5.6,5.6,5.6c2.1,0,3.4-0.4,4.5-0.8l0.5,2.1c-1,0.5-2.8,1-5.4,1c-5,0-8-3.3-8-8.2
		s2.9-8.7,7.6-8.7c5.3,0,6.7,4.7,6.7,7.6c0,0.6-0.1,1.1-0.1,1.4H78.7z M87.3,18.3c0-1.9-0.8-4.8-4.1-4.8c-3,0-4.3,2.7-4.5,4.8H87.3z
		"/>
	<path fill="#666766" d="M105.3,27.4c-0.8,0.4-2.5,0.9-4.7,0.9c-4.9,0-8.1-3.3-8.1-8.3c0-5,3.4-8.6,8.7-8.6c1.7,0,3.3,0.4,4.1,0.8
		l-0.7,2.3c-0.7-0.4-1.8-0.8-3.4-0.8c-3.7,0-5.7,2.7-5.7,6.1c0,3.7,2.4,6.1,5.6,6.1c1.7,0,2.8-0.4,3.6-0.8L105.3,27.4z"/>
	<path fill="#666766" d="M112.8,7.2v4.7h4.2v2.2h-4.2v8.7c0,2,0.6,3.1,2.2,3.1c0.8,0,1.3-0.1,1.7-0.2l0.1,2.2
		c-0.6,0.2-1.5,0.4-2.6,0.4c-1.4,0-2.5-0.4-3.2-1.2c-0.8-0.9-1.1-2.3-1.1-4.2v-8.8h-2.5v-2.2h2.5V7.9L112.8,7.2z"/>
</g>
</svg>
