<?xml version="1.0" encoding="utf-8"?>
<!-- Generator: Adobe Illustrator 18.1.1, SVG Export Plug-In . SVG Version: 6.00 Build 0)  -->
<svg version="1.1" id="Layer_1" xmlns="http://www.w3.org/2000/svg" xmlns:xlink="http://www.w3.org/1999/xlink" x="0px" y="0px"
	 viewBox="-252 347 107 100" enable-background="new -252 347 107 100" xml:space="preserve">
<path fill="#FFFFFF" d="M-218.9,397c-6,0.2-11,2.6-14.8,7.1h-7.5c-3.1,0-5.6-0.8-7.7-2.3c-2.1-1.5-3.1-3.7-3.1-6.6
	c0-13.1,2.3-19.7,6.9-19.7c0.2,0,1,0.4,2.4,1.2s3.2,1.6,5.4,2.4c2.2,0.8,4.4,1.2,6.6,1.2c2.5,0,5-0.4,7.4-1.3
	c-0.2,1.4-0.3,2.6-0.3,3.7C-223.4,387.9-221.9,392.6-218.9,397L-218.9,397z M-159.1,432.5c0,4.5-1.4,8-4.1,10.6
	c-2.7,2.6-6.3,3.9-10.8,3.9h-48.8c-4.5,0-8.1-1.3-10.8-3.9c-2.7-2.6-4.1-6.1-4.1-10.6c0-2,0.1-3.9,0.2-5.8c0.1-1.9,0.4-3.9,0.8-6.1
	s0.9-4.2,1.5-6.1c0.6-1.9,1.4-3.7,2.4-5.4s2.2-3.3,3.5-4.5s2.9-2.2,4.8-3c1.9-0.7,4-1.1,6.2-1.1c0.4,0,1.2,0.4,2.4,1.2
	c1.2,0.8,2.6,1.7,4.1,2.7c1.5,1,3.5,1.9,6,2.7c2.5,0.8,5,1.2,7.5,1.2c2.5,0,5-0.4,7.5-1.2c2.5-0.8,4.5-1.7,6-2.7
	c1.5-1,2.8-1.9,4.1-2.7s2-1.2,2.4-1.2c2.3,0,4.3,0.4,6.2,1.1c1.9,0.7,3.5,1.7,4.8,3c1.3,1.2,2.5,2.8,3.5,4.5s1.8,3.6,2.4,5.4
	s1.1,3.9,1.5,6.1s0.7,4.2,0.8,6.1C-159.2,428.6-159.1,430.6-159.1,432.5z M-216.3,361.3c0,3.9-1.4,7.3-4.2,10.1
	c-2.8,2.8-6.2,4.2-10.1,4.2c-3.9,0-7.3-1.4-10.1-4.2c-2.8-2.8-4.2-6.2-4.2-10.1c0-3.9,1.4-7.3,4.2-10.1c2.8-2.8,6.2-4.2,10.1-4.2
	s7.3,1.4,10.1,4.2C-217.7,354-216.3,357.3-216.3,361.3z M-177,382.7c0,5.9-2.1,11-6.3,15.2s-9.2,6.3-15.2,6.3s-11-2.1-15.2-6.3
	s-6.3-9.2-6.3-15.2c0-5.9,2.1-11,6.3-15.2s9.2-6.3,15.2-6.3s11,2.1,15.2,6.3S-177,376.8-177,382.7z M-144.9,395.3
	c0,2.9-1,5.1-3.1,6.6c-2.1,1.5-4.7,2.3-7.7,2.3h-7.5c-3.8-4.6-8.8-7-14.8-7.1c3-4.4,4.5-9.1,4.5-14.3c0-1.1-0.1-2.3-0.3-3.7
	c2.5,0.9,4.9,1.3,7.4,1.3c2.2,0,4.4-0.4,6.6-1.2c2.2-0.8,4-1.6,5.4-2.4c1.4-0.8,2.2-1.2,2.4-1.2
	C-147.2,375.6-144.9,382.1-144.9,395.3L-144.9,395.3z M-152,361.3c0,3.9-1.4,7.3-4.2,10.1c-2.8,2.8-6.2,4.2-10.1,4.2
	c-3.9,0-7.3-1.4-10.1-4.2c-2.8-2.8-4.2-6.2-4.2-10.1c0-3.9,1.4-7.3,4.2-10.1s6.2-4.2,10.1-4.2s7.3,1.4,10.1,4.2
	S-152,357.3-152,361.3z"/>
</svg>
