<?xml version="1.0" encoding="utf-8"?>
<!-- Generated by IcoMoon.io -->
<!DOCTYPE svg PUBLIC "-//W3C//DTD SVG 1.1//EN" "http://www.w3.org/Graphics/SVG/1.1/DTD/svg11.dtd">
<svg version="1.1" xmlns="http://www.w3.org/2000/svg" xmlns:xlink="http://www.w3.org/1999/xlink" width="93" height="100" viewBox="0 0 93 100">
<path fill="#444444" d="M63.449 56.027l17.076-16.574-23.549-3.46-10.547-21.317-10.547 21.317-23.549 3.46 17.076 16.574-4.074 23.493 21.094-11.105 21.038 11.105zM92.857 36.105q0 1.228-1.451 2.679l-20.257 19.754 4.799 27.902q0.056 0.391 0.056 1.116 0 2.79-2.288 2.79-1.060 0-2.232-0.67l-25.056-13.17-25.056 13.17q-1.228 0.67-2.232 0.67-1.172 0-1.758-0.809t-0.586-1.981q0-0.335 0.112-1.116l4.799-27.902-20.313-19.754q-1.395-1.507-1.395-2.679 0-2.065 3.125-2.567l28.013-4.074 12.556-25.391q1.060-2.288 2.734-2.288t2.734 2.288l12.556 25.391 28.013 4.074q3.125 0.502 3.125 2.567z"></path>
</svg>
