<?xml version="1.0" encoding="utf-8"?>
<!-- Generator: Adobe Illustrator 18.1.1, SVG Export Plug-In . SVG Version: 6.00 Build 0)  -->
<svg version="1.1" id="Layer_1" xmlns="http://www.w3.org/2000/svg" xmlns:xlink="http://www.w3.org/1999/xlink" x="0px" y="0px"
	 viewBox="-864.9 -247.2 101.1 110.3" enable-background="new -864.9 -247.2 101.1 110.3" xml:space="preserve">
<path fill="#FFFFFF" d="M-763.8-155.5c0,5.7-1.7,10.3-5.2,13.6s-8.1,5-13.9,5h-62.8c-5.8,0-10.4-1.7-13.9-5s-5.2-7.9-5.2-13.6
	c0-2.5,0.1-5,0.3-7.4s0.5-5,1-7.8c0.5-2.8,1.1-5.4,1.9-7.8s1.8-4.7,3.1-7s2.8-4.2,4.5-5.8c1.7-1.6,3.7-2.9,6.1-3.8
	c2.4-1,5.1-1.4,8-1.4c0.4,0,1.4,0.5,3,1.5c1.6,1,3.4,2.2,5.4,3.4c2,1.3,4.6,2.4,7.8,3.4c3.2,1,6.4,1.5,9.6,1.5
	c3.2,0,6.4-0.5,9.6-1.5c3.2-1,5.8-2.2,7.8-3.4c2-1.3,3.8-2.4,5.4-3.4c1.6-1,2.6-1.5,3-1.5c2.9,0,5.6,0.5,8,1.4
	c2.4,1,4.5,2.2,6.1,3.8c1.7,1.6,3.2,3.5,4.5,5.8s2.3,4.6,3.1,7c0.8,2.4,1.4,5,1.9,7.8c0.5,2.8,0.8,5.4,1,7.8S-763.8-158-763.8-155.5
	z M-786.7-219.6c0,7.6-2.7,14.1-8.1,19.5c-5.4,5.4-11.9,8.1-19.5,8.1s-14.1-2.7-19.5-8.1c-5.4-5.4-8.1-11.9-8.1-19.5
	c0-7.6,2.7-14.1,8.1-19.5c5.4-5.4,11.9-8.1,19.5-8.1c7.6,0,14.1,2.7,19.5,8.1C-789.4-233.7-786.7-227.2-786.7-219.6z"/>
</svg>
