<?xml version="1.0" encoding="utf-8"?>
<!-- Generator: Adobe Illustrator 18.1.1, SVG Export Plug-In . SVG Version: 6.00 Build 0)  -->
<svg version="1.1" id="Layer_1" xmlns="http://www.w3.org/2000/svg" xmlns:xlink="http://www.w3.org/1999/xlink" x="0px" y="0px"
	 viewBox="-235 327 120 140" enable-background="new -235 327 120 140" xml:space="preserve">
<path fill="#666666" d="M-120.3,356.7c1.5,1.5,2.7,3.4,3.8,5.9c1,2.5,1.6,4.8,1.6,6.9v90c0,2.1-0.7,3.9-2.2,5.3
	c-1.5,1.5-3.2,2.2-5.3,2.2h-105c-2.1,0-3.9-0.7-5.3-2.2c-1.5-1.5-2.2-3.2-2.2-5.3v-125c0-2.1,0.7-3.9,2.2-5.3
	c1.5-1.5,3.2-2.2,5.3-2.2h70c2.1,0,4.4,0.5,6.9,1.6c2.5,1,4.5,2.3,5.9,3.8L-120.3,356.7z M-155,337.6V367h29.4
	c-0.5-1.5-1.1-2.6-1.7-3.2l-24.5-24.5C-152.4,338.7-153.5,338.1-155,337.6z M-125,457v-80h-32.5c-2.1,0-3.9-0.7-5.3-2.2
	c-1.5-1.5-2.2-3.2-2.2-5.3V337h-60v120H-125z M-216.8,387v8.4h5.5l12.8,51.6h12.4l10-37.9c0.4-1,0.6-2.2,0.8-3.6
	c0.1-0.8,0.2-1.5,0.2-1.9h0.3l0.2,1.9c0.1,0.2,0.1,0.7,0.3,1.6c0.1,0.9,0.3,1.6,0.4,2l10,37.9h12.4l12.8-51.6h5.5V387h-23.4v8.4h7
	l-7.7,34.2c-0.3,1-0.4,2.2-0.5,3.6l-0.2,1.6h-0.3l-0.2-1.6c-0.1-0.3-0.2-0.8-0.3-1.6c-0.2-0.8-0.3-1.5-0.4-2l-11.2-42.6h-8.9
	l-11.2,42.6c-0.1,0.5-0.2,1.1-0.4,1.9c-0.1,0.8-0.2,1.4-0.3,1.7l-0.3,1.6h-0.3l-0.2-1.6c-0.1-1.4-0.3-2.6-0.5-3.6l-7.7-34.2h7V387
	H-216.8L-216.8,387z"/>
</svg>
