<?xml version="1.0" encoding="utf-8"?>
<!-- Generator: Adobe Illustrator 18.1.1, SVG Export Plug-In . SVG Version: 6.00 Build 0)  -->
<svg version="1.1" id="Layer_1" xmlns="http://www.w3.org/2000/svg" xmlns:xlink="http://www.w3.org/1999/xlink" x="0px" y="0px"
	 viewBox="-235 327 120 140" enable-background="new -235 327 120 140" xml:space="preserve">
<path fill="#666666" d="M-120.3,356.7c1.5,1.5,2.7,3.4,3.8,5.9c1,2.5,1.6,4.8,1.6,6.9v90c0,2.1-0.7,3.9-2.2,5.3
	c-1.5,1.5-3.2,2.2-5.3,2.2h-105c-2.1,0-3.9-0.7-5.3-2.2c-1.5-1.5-2.2-3.2-2.2-5.3v-125c0-2.1,0.7-3.9,2.2-5.3
	c1.5-1.5,3.2-2.2,5.3-2.2h70c2.1,0,4.4,0.5,6.9,1.6c2.5,1,4.5,2.3,5.9,3.8L-120.3,356.7z M-155,337.6V367h29.4
	c-0.5-1.5-1.1-2.6-1.7-3.2l-24.5-24.5C-152.4,338.7-153.5,338.1-155,337.6z M-125,457v-80h-32.5c-2.1,0-3.9-0.7-5.3-2.2
	c-1.5-1.5-2.2-3.2-2.2-5.3V337h-60v120H-125z M-135,422v25h-80v-15l15-15l10,10l30-30L-135,422z M-200,407c-4.2,0-7.7-1.5-10.6-4.4
	s-4.4-6.5-4.4-10.6s1.5-7.7,4.4-10.6s6.5-4.4,10.6-4.4s7.7,1.5,10.6,4.4s4.4,6.5,4.4,10.6s-1.5,7.7-4.4,10.6S-195.8,407-200,407z"/>
</svg>
