<?xml version="1.0" encoding="utf-8"?>
<!-- Generator: Adobe Illustrator 18.1.1, SVG Export Plug-In . SVG Version: 6.00 Build 0)  -->
<svg version="1.1" id="Layer_1" xmlns="http://www.w3.org/2000/svg" xmlns:xlink="http://www.w3.org/1999/xlink" x="0px" y="0px"
	 viewBox="-235 327 120 140" enable-background="new -235 327 120 140" xml:space="preserve">
<path fill="#666666" d="M-185,357v-10h-10v10H-185z M-175,367v-10h-10v10H-175z M-185,377v-10h-10v10H-185z M-175,387v-10h-10v10
	H-175z M-120.3,356.7c1.5,1.5,2.7,3.4,3.8,5.9c1,2.5,1.6,4.8,1.6,6.9v90c0,2.1-0.7,3.9-2.2,5.3c-1.5,1.5-3.2,2.2-5.3,2.2h-105
	c-2.1,0-3.9-0.7-5.3-2.2c-1.5-1.5-2.2-3.2-2.2-5.3v-125c0-2.1,0.7-3.9,2.2-5.3c1.5-1.5,3.2-2.2,5.3-2.2h70c2.1,0,4.4,0.5,6.9,1.6
	c2.5,1,4.5,2.3,5.9,3.8L-120.3,356.7z M-155,337.6V367h29.4c-0.5-1.5-1.1-2.6-1.7-3.2l-24.5-24.5
	C-152.4,338.7-153.5,338.1-155,337.6z M-125,457v-80h-32.5c-2.1,0-3.9-0.7-5.3-2.2c-1.5-1.5-2.2-3.2-2.2-5.3V337h-10v10h-10v-10h-40
	v120H-125z M-174,400.7l8.4,27.3c0.4,1.4,0.6,2.8,0.6,4.1c0,4.3-1.9,7.9-5.7,10.7c-3.8,2.8-8.6,4.3-14.3,4.3s-10.6-1.4-14.3-4.3
	c-3.8-2.8-5.7-6.4-5.7-10.7c0-1.3,0.2-2.7,0.6-4.1c1.1-3.3,4.2-13.6,9.4-30.9v-10h10v10h6.2c1.1,0,2.2,0.3,3,1
	C-174.9,398.7-174.3,399.6-174,400.7z M-185,437c2.8,0,5.1-0.5,7.1-1.5c2-1,2.9-2.2,2.9-3.5s-1-2.5-2.9-3.5c-2-1-4.3-1.5-7.1-1.5
	s-5.1,0.5-7.1,1.5c-2,1-2.9,2.2-2.9,3.5s1,2.5,2.9,3.5C-190.1,436.5-187.8,437-185,437z"/>
</svg>
