<?xml version="1.0" encoding="utf-8"?>
<!-- Generator: Adobe Illustrator 18.1.1, SVG Export Plug-In . SVG Version: 6.00 Build 0)  -->
<svg version="1.1" id="Layer_1" xmlns="http://www.w3.org/2000/svg" xmlns:xlink="http://www.w3.org/1999/xlink" x="0px" y="0px"
	 viewBox="-235 327 120 140" enable-background="new -235 327 120 140" xml:space="preserve">
<path fill="#666666" d="M-120.3,356.7c1.5,1.5,2.7,3.4,3.8,5.9c1,2.5,1.6,4.8,1.6,6.9v90c0,2.1-0.7,3.9-2.2,5.3
	c-1.5,1.5-3.2,2.2-5.3,2.2h-105c-2.1,0-3.9-0.7-5.3-2.2c-1.5-1.5-2.2-3.2-2.2-5.3v-125c0-2.1,0.7-3.9,2.2-5.3
	c1.5-1.5,3.2-2.2,5.3-2.2h70c2.1,0,4.4,0.5,6.9,1.6c2.5,1,4.5,2.3,5.9,3.8L-120.3,356.7z M-155,337.6V367h29.4
	c-0.5-1.5-1.1-2.6-1.7-3.2l-24.5-24.5C-152.4,338.7-153.5,338.1-155,337.6z M-125,457v-80h-32.5c-2.1,0-3.9-0.7-5.3-2.2
	c-1.5-1.5-2.2-3.2-2.2-5.3V337h-60v120H-125z M-165.2,410.7c1.7,1.4,3.9,2.8,6.6,4.4c3.1-0.4,6.1-0.5,9.1-0.5
	c7.7,0,12.3,1.3,13.8,3.8c0.8,1.1,0.9,2.5,0.2,4.1c0,0.1,0,0.1-0.1,0.2l-0.2,0.2v0.1c-0.3,2-2.2,3-5.5,3c-2.5,0-5.5-0.5-9-1.6
	c-3.5-1-6.9-2.4-10.2-4.1c-11.5,1.3-21.7,3.4-30.6,6.5c-8,13.6-14.3,20.5-18.9,20.5c-0.8,0-1.5-0.2-2.2-0.5l-1.9-0.9
	c-0.1-0.1-0.2-0.2-0.5-0.4c-0.5-0.5-0.7-1.5-0.5-2.8c0.5-2.1,1.9-4.5,4.4-7.1c2.4-2.7,5.9-5.2,10.3-7.5c0.7-0.5,1.3-0.3,1.8,0.5
	c0.1,0.1,0.2,0.2,0.2,0.3c2.7-4.4,5.5-9.6,8.4-15.4c3.5-7.1,6.2-13.9,8.1-20.5c-1.2-4.3-2-8.4-2.4-12.5c-0.3-4-0.2-7.4,0.5-10
	c0.6-2.1,1.7-3.1,3.3-3.1h1.7c1.2,0,2.1,0.4,2.7,1.2c0.9,1.1,1.2,2.9,0.7,5.3c-0.1,0.3-0.2,0.5-0.3,0.6c0.1,0.2,0.1,0.4,0.1,0.6v2.3
	c-0.1,6.4-0.5,11.4-1.1,15C-173.7,400.6-169.9,406.8-165.2,410.7L-165.2,410.7z M-210.2,442.8c2.7-1.2,6.3-5.4,10.7-12.3
	c-2.7,2.1-4.9,4.3-6.8,6.6S-209.5,441.2-210.2,442.8z M-179.1,370.9c-0.8,2.2-0.8,5.6-0.2,10.3c0.1-0.4,0.2-1.5,0.5-3.4
	c0-0.2,0.2-1.3,0.5-3.4c0.1-0.2,0.2-0.4,0.3-0.6c-0.1-0.1-0.1-0.1-0.1-0.2s0-0.1,0-0.1s0-0.1,0-0.1c-0.1-1.1-0.4-2.1-1-2.8
	c0,0.1,0,0.1-0.1,0.2L-179.1,370.9L-179.1,370.9z M-188.8,422.5c7-2.8,14.4-4.9,22.2-6.3c-0.1-0.1-0.4-0.3-1-0.7s-1-0.8-1.2-1.1
	c-4-3.5-7.3-8.1-9.9-13.8c-1.4,4.5-3.6,9.6-6.5,15.4C-186.8,419-188,421.1-188.8,422.5z M-138.3,421.3c-1.2-1.2-4.9-1.9-10.9-1.9
	c4,1.5,7.2,2.2,9.7,2.2c0.7,0,1.2,0,1.4-0.1C-138.1,421.5-138.2,421.4-138.3,421.3L-138.3,421.3z"/>
</svg>
