<?xml version="1.0" encoding="utf-8"?>
<!-- Generator: Adobe Illustrator 18.1.1, SVG Export Plug-In . SVG Version: 6.00 Build 0)  -->
<svg version="1.1" id="Layer_1" xmlns="http://www.w3.org/2000/svg" xmlns:xlink="http://www.w3.org/1999/xlink" x="0px" y="0px"
	 viewBox="-235 327 120 140" enable-background="new -235 327 120 140" xml:space="preserve">
<path fill="#666666" d="M-120.3,356.7c1.5,1.5,2.7,3.4,3.8,5.9c1,2.5,1.6,4.8,1.6,6.9v90c0,2.1-0.7,3.9-2.2,5.3
	c-1.5,1.5-3.2,2.2-5.3,2.2h-105c-2.1,0-3.9-0.7-5.3-2.2c-1.5-1.5-2.2-3.2-2.2-5.3v-125c0-2.1,0.7-3.9,2.2-5.3
	c1.5-1.5,3.2-2.2,5.3-2.2h70c2.1,0,4.4,0.5,6.9,1.6c2.5,1,4.5,2.3,5.9,3.8L-120.3,356.7z M-155,337.6V367h29.4
	c-0.5-1.5-1.1-2.6-1.7-3.2l-24.5-24.5C-152.4,338.7-153.5,338.1-155,337.6z M-125,457v-80h-32.5c-2.1,0-3.9-0.7-5.3-2.2
	c-1.5-1.5-2.2-3.2-2.2-5.3V337h-60v120H-125z M-201.5,438.7v8.3h22v-8.3h-5.9l8-12.6c0.3-0.4,0.5-0.8,0.8-1.3
	c0.3-0.5,0.5-0.8,0.6-1.1c0.1-0.2,0.2-0.3,0.3-0.3h0.2c0.1,0.2,0.2,0.5,0.4,0.8c0.1,0.2,0.2,0.4,0.4,0.6c0.1,0.2,0.3,0.4,0.5,0.6
	c0.2,0.2,0.4,0.5,0.5,0.7l8.4,12.6h-5.9v8.3h22.7v-8.3h-5.3l-15-21.3l15.2-22h5.2V387h-21.8v8.4h5.8l-8,12.4
	c-0.2,0.4-0.5,0.8-0.8,1.3c-0.3,0.5-0.5,0.8-0.7,1.1l-0.2,0.2h-0.2c-0.1-0.2-0.2-0.5-0.4-0.8c-0.3-0.6-0.8-1.2-1.3-1.8l-8.3-12.4
	h5.9V387h-22.7v8.4h5.3l14.8,21.2l-15.2,22.1L-201.5,438.7L-201.5,438.7z"/>
</svg>
