<?xml version="1.0" encoding="utf-8"?>
<!-- Generated by IcoMoon.io -->
<!DOCTYPE svg PUBLIC "-//W3C//DTD SVG 1.1//EN" "http://www.w3.org/Graphics/SVG/1.1/DTD/svg11.dtd">
<svg version="1.1" xmlns="http://www.w3.org/2000/svg" xmlns:xlink="http://www.w3.org/1999/xlink" width="140" height="140" viewBox="0 0 140 140">
<path fill="#666666" d="M97.5 10q9.297 0 15.898 6.602t6.602 15.898v75q0 9.297-6.602 15.898t-15.898 6.602h-14.688v-46.484h15.547l2.344-18.125h-17.891v-11.562q0-4.375 1.836-6.563t7.148-2.188l9.531-0.078v-16.172q-4.922-0.703-13.906-0.703-10.625 0-16.992 6.25t-6.367 17.656v13.359h-15.625v18.125h15.625v46.484h-41.563q-9.297 0-15.898-6.602t-6.602-15.898v-75q0-9.297 6.602-15.898t15.898-6.602h75z"></path>
</svg>
