<?xml version="1.0" encoding="utf-8"?>
<!-- Generated by IcoMoon.io -->
<!DOCTYPE svg PUBLIC "-//W3C//DTD SVG 1.1//EN" "http://www.w3.org/Graphics/SVG/1.1/DTD/svg11.dtd">
<svg version="1.1" xmlns="http://www.w3.org/2000/svg" xmlns:xlink="http://www.w3.org/1999/xlink" width="130" height="140" viewBox="0 0 130 140">
<path fill="#666666" d="M126.562 31.875q-5.234 7.656-12.656 13.047 0.078 1.094 0.078 3.281 0 10.156-2.969 20.273t-9.023 19.414-14.414 16.445-20.156 11.406-25.234 4.258q-21.172 0-38.75-11.328 2.734 0.313 6.094 0.313 17.578 0 31.328-10.781-8.203-0.156-14.688-5.039t-8.906-12.461q2.578 0.391 4.766 0.391 3.359 0 6.641-0.859-8.75-1.797-14.492-8.711t-5.742-16.055v-0.313q5.312 2.969 11.406 3.203-5.156-3.438-8.203-8.984t-3.047-12.031q0-6.875 3.438-12.734 9.453 11.641 23.008 18.633t29.023 7.773q-0.625-2.969-0.625-5.781 0-10.469 7.383-17.852t17.852-7.383q10.938 0 18.437 7.969 8.516-1.641 16.016-6.094-2.891 8.984-11.094 13.906 7.266-0.781 14.531-3.906z"></path>
</svg>
